<svg width="105" height="105" viewBox="0 0 105 105" fill="none" xmlns="http://www.w3.org/2000/svg">
  <g clip-path="url(#clip0)">
    <rect width="105" height="105" fill="black"/>
    <path d="M7 8.45718V94.6957H19.6001V32.2484H20.4146L46.2985 94.5672H56.7533L82.6339 32.2912H83.4484V94.6957H96.0485V8.45718H79.9791L52.0404 75.4928H51.0114L23.0693 8.46047H7V8.45718ZM144.88 96C159.233 96 169.39 89.0501 172.302 78.5264L160.175 76.3788C157.862 82.4855 152.291 85.6015 145.007 85.6015C134.036 85.6015 126.665 78.6087 126.323 66.1449H173.117V61.6818C173.117 38.3123 158.891 29.1752 143.978 29.1752C125.636 29.1752 113.552 42.9038 113.552 62.7787C113.552 82.8643 125.465 96 144.877 96H144.88ZM126.364 56.718C126.877 47.5382 133.648 39.5804 144.062 39.5804C154.001 39.5804 160.514 46.8235 160.557 56.718H126.367H126.364ZM236.657 45.809C233.999 35.7431 225.984 29.1752 211.759 29.1752C196.889 29.1752 186.351 36.8827 186.351 48.3353C186.351 57.5152 192.005 63.6186 204.344 66.3162L215.486 68.7141C221.828 70.1041 224.784 72.8841 224.784 76.9256C224.784 81.9354 219.344 85.8518 210.944 85.8518C203.275 85.8518 198.347 82.6107 196.802 76.2536L184.42 78.1047C186.562 89.5573 196.246 96 211.031 96C226.93 96 237.941 87.7062 237.941 76C237.941 66.863 232.028 61.2207 219.941 58.4835L209.486 56.1252C202.246 54.4387 199.118 52.0408 199.162 47.6601C199.118 42.693 204.602 39.1555 211.886 39.1555C219.857 39.1555 223.544 43.4901 225.042 47.8281L236.657 45.809ZM282.753 30.0184H269.255V14.5211H256.444V30.0184H246.8V40.1238H256.444V78.3156C256.4 90.0646 265.527 95.7497 275.64 95.5389C279.71 95.4961 282.455 94.7385 283.953 94.1884L281.64 83.7899C280.782 83.9578 279.197 84.3366 277.139 84.3366C272.982 84.3366 269.255 82.9895 269.255 75.7069V40.1206H282.753V30.0152V30.0184ZM323.942 96C342.499 96 354.626 82.6535 354.626 62.6502C354.626 42.525 342.499 29.1752 323.946 29.1752C305.389 29.1752 293.262 42.5217 293.262 62.6502C293.262 82.6535 305.389 96 323.946 96H323.942ZM323.989 85.4302C311.862 85.4302 306.204 75.0316 306.204 62.6107C306.204 50.2293 311.862 39.7022 323.989 39.7022C336.029 39.7022 341.684 50.2293 341.684 62.6107C341.684 75.0283 336.029 85.4302 323.986 85.4302H323.989ZM366.268 15.6443H369.811V4.41239H376.21C376.464 4.41239 376.709 4.41238 376.95 4.4025L383.121 15.6443H387.238L380.624 3.77009C384.352 2.51845 386.095 -0.469038 386.095 -4.28656C386.095 -9.36891 383.007 -13.1008 376.153 -13.1008H366.268V15.6443ZM369.811 1.27009V-10.0145H376.039C380.778 -10.0145 382.608 -7.74177 382.608 -4.28656C382.608 -0.834651 380.778 1.27009 376.096 1.27009H369.811ZM405.365 6.83004C405.365 10.8715 402.224 12.726 399.71 12.726C396.911 12.726 394.91 10.7036 394.91 7.55797V-5.9137H391.538V7.78524C391.538 13.2859 394.511 15.9242 398.624 15.9242C401.939 15.9242 404.108 14.1851 405.137 11.9947H405.365V15.6443H408.737V-5.9137H405.365V6.83004ZM430.451 -1.08827C429.395 -4.14822 427.025 -6.19368 422.681 -6.19368C418.052 -6.19368 414.627 -3.61462 414.627 0.034915C414.627 3.01252 416.427 5.00527 420.452 5.93083L424.109 6.77405C426.325 7.278 427.367 8.31884 427.367 9.80435C427.367 11.6588 425.366 13.1739 422.225 13.1739C419.467 13.1739 417.741 12.0079 417.141 9.69236L413.939 10.4796C414.727 14.1423 417.797 16.0922 422.282 16.0922C427.381 16.0922 430.853 13.3584 430.853 9.63636C430.853 6.63241 428.939 4.73847 425.024 3.79644L421.766 3.01252C419.168 2.38011 417.995 1.52372 417.995 -0.133069C417.995 -1.98419 419.996 -3.33136 422.681 -3.33136C425.624 -3.33136 426.838 -1.73386 427.424 -0.245058L430.451 -1.08827ZM451.468 -1.08827C450.409 -4.14822 448.039 -6.19368 443.698 -6.19368C439.069 -6.19368 435.64 -3.61462 435.64 0.034915C435.64 3.01252 437.44 5.00527 441.469 5.93083L445.126 6.77405C447.338 7.278 448.381 8.31884 448.381 9.80435C448.381 11.6588 446.383 13.1739 443.239 13.1739C440.484 13.1739 438.754 12.0079 438.154 9.69236L434.956 10.4796C435.741 14.1423 438.811 16.0922 443.296 16.0922C448.398 16.0922 451.867 13.3584 451.867 9.63636C451.867 6.63241 449.953 4.73847 446.041 3.79644L442.783 3.01252C440.182 2.38011 439.012 1.52372 439.012 -0.133069C439.012 -1.98419 441.013 -3.33136 443.698 -3.33136C446.638 -3.33136 447.855 -1.73386 448.438 -0.245058L451.468 -1.08827ZM456.942 15.6443H460.314V-5.9137H456.942V15.6443ZM458.655 -9.50725C459.969 -9.50725 461.055 -10.5184 461.055 -11.7536C461.055 -12.9888 459.969 -14 458.655 -14C457.341 -14 456.255 -12.9888 456.255 -11.7536C456.255 -10.5184 457.341 -9.50725 458.655 -9.50725ZM472.944 16.1482C476.772 16.1482 478.77 14.1291 479.457 12.7227H479.628V15.6443H483V1.43808C483 -5.40975 477.687 -6.19697 474.885 -6.19697C471.573 -6.19697 467.802 -5.07378 466.086 -1.14427L469.287 -0.02108C470.028 -1.59223 471.788 -3.27536 474.999 -3.27536C478.099 -3.27536 479.628 -1.6614 479.628 1.1054V1.2141C479.628 2.81489 477.972 2.67655 473.973 3.1805C469.9 3.70092 465.459 4.58366 465.459 9.52438C465.459 13.7339 468.771 16.1482 472.944 16.1482ZM473.457 13.1739C470.772 13.1739 468.831 11.9947 468.831 9.69236C468.831 7.16601 471.171 6.38208 473.799 6.04282C475.23 5.87813 479.058 5.48287 479.628 4.80764V7.83795C479.628 10.5356 477.456 13.1739 473.457 13.1739Z" fill="white"/>
  </g>
  <defs>
    <clipPath id="clip0">
     <rect width="105" height="105" fill="white"/>
    </clipPath>
  </defs>
</svg>
